<?xml version="1.0" encoding="iso-8859-1"?>
<!-- Generator: Adobe Illustrator 19.0.0, SVG Export Plug-In . SVG Version: 6.00 Build 0)  -->
<svg version="1.1" id="Capa_1" xmlns="http://www.w3.org/2000/svg" xmlns:xlink="http://www.w3.org/1999/xlink" x="0px" y="0px"
	 viewBox="0 0 56.48 56.48" style="enable-background:new 0 0 56.48 56.48;" xml:space="preserve">
<g>
	<g>
		<path d="M12.182,33.055c-0.315,0-0.46,0.022-0.599,0.031v4.174c-0.001,0.592,0.423,0.661,0.798,0.661
			c1.658,0,2.202-1.25,2.202-2.395C14.583,34.093,13.662,33.055,12.182,33.055z"/>
	</g>
</g>
<g>
	<g>
		<path d="M41.887,40.291h-0.014h-0.008h-0.013l-0.4,1.217h0.83L41.887,40.291z M41.863,40.31l0.001-0.002h0.008l0.386,1.183h-0.784
			L41.863,40.31z"/>
	</g>
</g>
<g>
	<g>
		<path d="M43.463,42.63c-0.138,0-0.225-0.05-0.272-0.169c-0.056-0.125-0.105-0.28-0.155-0.426l-0.769-2.184
			c-0.012-0.033-0.025-0.071-0.039-0.104c-0.007-0.013-0.015-0.013-0.028-0.013c-0.014,0-0.02,0.005-0.034,0.009
			c-0.08,0.05-0.246,0.134-0.38,0.179c-0.024,0.156-0.1,0.365-0.153,0.519l-0.668,1.916c-0.063,0.174-0.201,0.272-0.365,0.272
			h-0.025v0.125c0.149-0.01,0.3-0.017,0.451-0.017c0.167,0,0.338,0.007,0.505,0.017V42.63h-0.047c-0.136,0-0.312-0.02-0.312-0.146
			c0-0.074,0.049-0.183,0.09-0.325l0.136-0.435h0.946l0.162,0.483c0.047,0.134,0.084,0.246,0.084,0.3
			c0,0.105-0.162,0.123-0.259,0.123h-0.045v0.125c0.212-0.01,0.421-0.017,0.625-0.017c0.201,0,0.389,0.007,0.577,0.017V42.63H43.463
			z M43.471,42.736c-0.183-0.008-0.366-0.016-0.559-0.016c-0.197,0-0.402,0.008-0.607,0.016h-0.002v-0.087h0.028
			c0.096-0.003,0.27-0.013,0.277-0.142c0-0.061-0.037-0.172-0.083-0.306l-0.168-0.497h-0.975l-0.137,0.447
			c-0.04,0.142-0.092,0.248-0.092,0.331c0.004,0.149,0.193,0.164,0.33,0.166h0.029v0.087c-0.162-0.008-0.326-0.016-0.487-0.016
			c-0.146,0-0.289,0.008-0.433,0.016v-0.087h0.006c0.17,0,0.317-0.104,0.379-0.285l0.67-1.916c0.053-0.155,0.13-0.365,0.154-0.521
			c0.125-0.033,0.293-0.115,0.373-0.168c0.009-0.002,0.014-0.006,0.023-0.006h0.008c0.003,0,0.002,0,0.006,0.006
			c0.012,0.029,0.023,0.068,0.035,0.1l0.77,2.184c0.05,0.147,0.099,0.301,0.154,0.428c0.051,0.123,0.15,0.18,0.293,0.18h0.006h0.002
			V42.736z"/>
	</g>
</g>
<g>
	<g>
		<path d="M11.333,39.966h0.058v-0.125c-0.197,0-0.447,0.016-0.655,0.016c-0.205,0-0.456-0.016-0.619-0.016v0.125h0.059
			c0.151,0,0.309,0.019,0.309,0.237v2.187c0,0.218-0.159,0.238-0.309,0.238h-0.059v0.125c0.163,0,0.409-0.016,0.614-0.016
			c0.209,0,0.459,0.016,0.66,0.016v-0.125h-0.058c-0.151,0-0.31-0.019-0.31-0.238v-2.187C11.023,39.986,11.183,39.966,11.333,39.966
			z M11.332,42.65h0.04v0.089c-0.198-0.001-0.439-0.018-0.642-0.018c-0.198,0-0.433,0.017-0.595,0.018V42.65h0.04
			c0.149,0,0.327-0.027,0.327-0.257v-2.188c0-0.231-0.178-0.257-0.327-0.257h-0.04v-0.089c0.162,0.002,0.402,0.017,0.6,0.017
			c0.203,0,0.445-0.017,0.637-0.017v0.089h-0.04c-0.15,0-0.328,0.027-0.328,0.257v2.188C11.004,42.624,11.183,42.65,11.332,42.65z"
			/>
	</g>
</g>
<g>
	<g>
		<path d="M55.026,9.939H1.454C0.65,9.939,0,10.59,0,11.393v33.694c0,0.803,0.65,1.455,1.454,1.455h53.572
			c0.804,0,1.454-0.651,1.454-1.454V11.393C56.48,10.59,55.83,9.939,55.026,9.939z M42.195,32.721c0.31-0.1,0.63-0.237,0.791-0.33
			c0.084-0.047,0.146-0.084,0.169-0.084c0.045,0,0.062,0.045,0.062,0.107v2.801c0.306-0.261,0.72-0.552,1.142-0.552
			c0.89,0,1.427,0.775,1.427,1.611c0,1.004-0.736,2.01-1.835,2.01c-0.565,0-0.866-0.185-1.065-0.271l-0.229,0.178l-0.161-0.083
			c0.068-0.453,0.107-0.899,0.107-1.367v-3.299c0-0.498-0.116-0.515-0.408-0.599V32.721z M40.147,37.869
			c0.261,0,0.607-0.2,0.928-0.467v-2.064c0-0.154-0.37-0.238-0.644-0.314v-0.139c0.688-0.046,1.119-0.107,1.195-0.107
			c0.062,0,0.062,0.054,0.062,0.138v2.831c0,0.138,0.084,0.146,0.214,0.146c0.093,0,0.207-0.008,0.308-0.008v0.162
			c-0.33,0.029-0.959,0.191-1.105,0.237l-0.038-0.022V37.64c-0.46,0.375-0.813,0.645-1.358,0.645c-0.414,0-0.844-0.269-0.844-0.913
			v-1.965c0-0.202-0.029-0.392-0.459-0.431V34.83c0.275-0.007,0.888-0.053,0.99-0.053c0.084,0,0.084,0.053,0.084,0.222v1.978
			C39.48,37.208,39.48,37.869,40.147,37.869z M25.967,12.87h4.212c4.893-0.002,9.362,3.69,9.362,9.032
			c0,4.884-4.467,8.9-9.362,8.876h-4.212c-4.953,0.024-9.03-3.99-9.03-8.876C16.937,16.56,21.014,12.867,25.967,12.87z
			 M36.868,32.843v-0.123c0.309-0.1,0.629-0.237,0.791-0.33c0.083-0.047,0.147-0.084,0.169-0.084c0.048,0,0.062,0.045,0.062,0.107
			v5.301c0,0.254,0.17,0.254,0.385,0.254h0.129v0.198c-0.26,0-0.528-0.014-0.805-0.014c-0.276,0-0.553,0.007-0.836,0.014v-0.198
			h0.146c0.215,0,0.369,0,0.369-0.254v-4.271C37.278,32.943,37.163,32.927,36.868,32.843z M27.273,35.643
			c0-0.429,0.346-0.982,1.189-0.982c0.247,0,0.576,0.07,0.875,0.223l0.053,0.782h-0.176c-0.076-0.484-0.344-0.759-0.836-0.759
			c-0.306,0-0.598,0.177-0.598,0.506c0,0.899,1.78,0.622,1.78,1.826c0,0.506-0.407,1.044-1.32,1.044
			c-0.308,0-0.667-0.109-0.936-0.261L27.22,37.14l0.138-0.039c0.1,0.507,0.406,0.937,0.967,0.937c0.451,0,0.62-0.276,0.62-0.545
			C28.945,36.586,27.273,36.877,27.273,35.643z M25.961,37.968h0.429v0.198c-0.422-0.007-0.742-0.014-1.073-0.014
			c-0.315,0-0.637,0.007-0.913,0.014v-0.198h0.207c0.214,0,0.367,0,0.367-0.254V35.56c0-0.239-0.282-0.284-0.398-0.346v-0.115
			c0.561-0.239,0.868-0.438,0.937-0.438c0.045,0,0.068,0.024,0.068,0.1v0.69h0.016c0.191-0.299,0.514-0.79,0.981-0.79
			c0.191,0,0.438,0.129,0.438,0.406c0,0.208-0.146,0.392-0.361,0.392c-0.238,0-0.238-0.184-0.506-0.184
			c-0.13,0-0.56,0.176-0.56,0.636v1.803C25.593,37.969,25.747,37.969,25.961,37.968z M21.995,36.495
			c0.045,0.729,0.515,1.328,1.127,1.328c0.423,0,0.753-0.23,1.036-0.513l0.107,0.106c-0.353,0.468-0.789,0.867-1.418,0.867
			c-1.22,0-1.466-1.183-1.466-1.673c0-1.503,1.013-1.948,1.55-1.948c0.621,0,1.289,0.39,1.296,1.203c0,0.047,0,0.093-0.007,0.14
			l-0.07,0.045h-2.155C21.978,36.12,21.978,36.234,21.995,36.495z M16.516,32.726c0.199,0,0.376,0.162,0.376,0.371
			c0,0.205-0.168,0.383-0.376,0.383c-0.199,0-0.375-0.184-0.375-0.383C16.141,32.903,16.324,32.726,16.516,32.726z M15.811,35.101
			v-0.123c0.361-0.108,0.79-0.254,0.82-0.276c0.055-0.03,0.1-0.038,0.139-0.038c0.038,0,0.054,0.045,0.054,0.107v2.945
			c0,0.254,0.17,0.254,0.384,0.254h0.13v0.197c-0.262,0-0.53-0.014-0.806-0.014s-0.552,0.007-0.836,0.014l-0.001-0.195h0.146
			c0.214,0,0.369,0,0.369-0.254v-2.08C16.21,35.299,16.094,35.252,15.811,35.101z M10.125,37.966
			c0.46-0.045,0.684-0.061,0.705-0.582v-3.723h0.001c0-0.689-0.361-0.644-0.706-0.65V32.81c0.3,0.016,0.605,0.016,0.905,0.016
			c0.323,0,0.761-0.016,1.328-0.016c1.987,0,3.068,1.329,3.068,2.686c0,0.76-0.444,2.67-3.16,2.67c-0.391,0-0.753-0.014-1.112-0.014
			c-0.345,0-0.683,0.007-1.028,0.014v-0.001h-0.001V37.966z M11.41,39.986h-0.019h-0.058c-0.152,0.003-0.292,0.016-0.292,0.221
			v2.187c0.001,0.205,0.14,0.218,0.292,0.221h0.077v0.02v0.143h-0.019c-0.202,0-0.452-0.018-0.66-0.018
			c-0.203,0-0.449,0.018-0.614,0.018H10.1V42.76v-0.125v-0.02h0.017h0.059c0.152-0.003,0.29-0.016,0.291-0.221v-2.187
			c-0.001-0.205-0.14-0.219-0.291-0.221H10.1v-0.019v-0.144h0.016c0.165,0,0.415,0.017,0.619,0.017c0.208,0,0.458-0.017,0.655-0.017
			h0.019l0.001,0.021V39.986z M14.929,39.984h-0.018h-0.062c-0.173,0.005-0.35,0.021-0.354,0.513v1.9
			c0,0.146,0.004,0.291,0.024,0.417l0.003,0.022h-0.021l-0.173-0.007l-2.118-2.36v1.674c0.005,0.364,0.06,0.467,0.374,0.471h0.09
			v0.02v0.143h-0.019c-0.181,0-0.361-0.018-0.539-0.018c-0.186,0-0.379,0.018-0.568,0.018H11.53V42.76v-0.145h0.019h0.059
			c0.275-0.002,0.355-0.18,0.357-0.512v-1.758c0-0.222-0.183-0.356-0.362-0.357H11.53v-0.018v-0.144h0.019
			c0.16,0,0.323,0.015,0.479,0.015c0.125,0,0.245-0.015,0.387-0.009l1.834,2.065v-1.536c-0.002-0.332-0.224-0.373-0.345-0.375h-0.11
			v-0.019v-0.143h0.018c0.196,0,0.389,0.016,0.584,0.016c0.17,0,0.34-0.016,0.514-0.016h0.018l0.001,0.017V39.984z M17.945,39.729
			c-0.017,0.11-0.034,0.225-0.046,0.337c-0.008,0.111-0.008,0.224-0.008,0.336v0.013l-0.011,0.005l-0.148,0.055l-0.001-0.024
			c-0.011-0.157-0.028-0.384-0.292-0.384h-0.667v2.203c0.004,0.315,0.129,0.337,0.328,0.341h0.101v0.019v0.145h-0.018
			c-0.165,0-0.457-0.017-0.681-0.017c-0.249,0-0.542,0.017-0.706,0.017h-0.018v-0.019v-0.144h0.018h0.08
			c0.229-0.005,0.322-0.009,0.327-0.332v-2.211h-0.667c-0.308,0.006-0.302,0.057-0.371,0.366l-0.002,0.015h-0.015h-0.146
			l0.001-0.022c0.018-0.116,0.039-0.233,0.051-0.354c0.018-0.117,0.025-0.233,0.025-0.354v-0.018h0.017h0.116l0.002,0.014
			c0.029,0.104,0.106,0.105,0.213,0.106h0.021h2.153c0.117-0.001,0.202-0.003,0.208-0.112l0.002-0.02l0.019,0.004l0.118,0.018
			L17.945,39.729z M20.452,42.096c-0.054,0.222-0.104,0.442-0.142,0.662l-0.003,0.016h-0.015c-0.267,0-0.748-0.018-1.123-0.018
			s-0.871,0.018-1.109,0.018h-0.018v-0.018V42.63v-0.02h0.018h0.059c0.152-0.002,0.289-0.016,0.29-0.221v-2.187
			c-0.001-0.204-0.138-0.218-0.29-0.221h-0.077v-0.019V39.82h0.018c0.255,0,0.689,0.016,1.039,0.016
			c0.351,0,0.784-0.016,1.068-0.016h0.019l-0.001,0.02c-0.002,0.062-0.004,0.135-0.004,0.215c0,0.145,0.004,0.302,0.013,0.42v0.017
			l-0.013,0.004l-0.147,0.038l-0.001-0.021c-0.025-0.272-0.06-0.467-0.491-0.472H18.98v1.058h0.478
			c0.241-0.002,0.284-0.127,0.312-0.352l0.002-0.016h0.016h0.145l-0.001,0.019c-0.008,0.162-0.013,0.325-0.013,0.488
			c0,0.159,0.005,0.318,0.013,0.476l0.001,0.016l-0.016,0.004l-0.145,0.029l-0.002-0.021c-0.029-0.253-0.031-0.393-0.308-0.397
			h-0.483v0.955c0,0.254,0.22,0.252,0.492,0.254c0.502-0.004,0.704-0.027,0.83-0.498l0.004-0.016l0.018,0.002l0.134,0.035
			L20.452,42.096z M19.77,38.166v-0.198h0.138c0.215,0,0.367,0,0.367-0.254v-1.986c0-0.437-0.268-0.652-0.706-0.652
			c-0.245,0-0.636,0.201-0.891,0.369v2.271c0,0.254,0.17,0.254,0.385,0.254h0.138v0.197c-0.268,0-0.537-0.014-0.813-0.014
			s-0.552,0.007-0.828,0.014v-0.197h0.137c0.215,0,0.368,0,0.368-0.254v-2.033h0.001c0-0.284-0.085-0.36-0.445-0.506v-0.146
			c0.33-0.107,0.643-0.207,1.013-0.368c0.022,0,0.044,0.014,0.044,0.076v0.499c0.438-0.314,0.815-0.575,1.329-0.575
			c0.652,0,0.882,0.475,0.882,1.073v1.98c0,0.254,0.168,0.254,0.383,0.254h0.139v0.198c-0.269,0-0.537-0.014-0.813-0.014
			S20.045,38.161,19.77,38.166z M23.495,42.63v0.146h-0.018c-0.139,0-0.273-0.017-0.41-0.017c-0.127,0-0.26,0.016-0.406,0.01
			c-0.32-0.422-0.594-0.869-0.864-1.346H21.55v0.875c0.005,0.315,0.131,0.312,0.324,0.316h0.094v0.02v0.143h-0.019
			c-0.238,0-0.481-0.018-0.718-0.018c-0.199,0-0.395,0.018-0.604,0.018h-0.018v-0.018v-0.145h0.018h0.074
			c0.152-0.001,0.277-0.066,0.278-0.207v-2.122c-0.003-0.297-0.148-0.294-0.278-0.298h-0.092v-0.02v-0.144h0.018
			c0.135,0,0.393,0.017,0.647,0.017c0.249,0,0.449-0.017,0.672-0.017c0.526,0.002,1.011,0.148,1.012,0.753
			c0,0.378-0.249,0.613-0.571,0.744l0.701,1.05c0.117,0.174,0.189,0.216,0.393,0.242l0.015,0.002L23.495,42.63z M26.55,40.495v1.9
			c0,0.146,0.003,0.29,0.025,0.419l0.002,0.021h-0.021l-0.172-0.007l-2.119-2.362v1.674c0.004,0.364,0.06,0.466,0.375,0.47h0.088
			v0.019v0.146H24.71c-0.182,0-0.36-0.017-0.539-0.017c-0.185,0-0.379,0.017-0.566,0.017h-0.019v-0.019v-0.144h0.019h0.058
			c0.275,0,0.354-0.179,0.356-0.513v-1.758c0-0.221-0.181-0.356-0.361-0.356h-0.072v-0.019v-0.144h0.019
			c0.159,0,0.321,0.017,0.479,0.017c0.122,0,0.244-0.017,0.383-0.011l1.835,2.065v-1.535c-0.001-0.332-0.224-0.373-0.345-0.375
			h-0.11v-0.018V39.82h0.019c0.197,0,0.389,0.016,0.584,0.016c0.17,0,0.341-0.016,0.513-0.016h0.018v0.02v0.143h-0.018h-0.062
			C26.728,39.989,26.552,40.002,26.55,40.495z M29.879,42.63v0.149l-0.02-0.002c-0.187-0.009-0.376-0.017-0.575-0.017
			c-0.205,0-0.412,0.008-0.625,0.017l-0.019,0.001v-0.02v-0.144h0.02h0.045c0.098,0,0.241-0.023,0.241-0.103
			c0.002-0.047-0.037-0.162-0.083-0.295l-0.159-0.472h-0.92l-0.129,0.422c-0.043,0.141-0.093,0.253-0.093,0.321
			c0.002,0.102,0.157,0.127,0.296,0.127h0.063v0.02v0.144l-0.019-0.001c-0.166-0.008-0.336-0.018-0.503-0.018
			c-0.151,0-0.301,0.01-0.45,0.018l-0.02,0.001v-0.019v-0.145h0.019h0.024c0.156-0.001,0.284-0.089,0.345-0.26l0.669-1.916
			c0.055-0.155,0.13-0.362,0.166-0.529c0.129-0.044,0.297-0.128,0.378-0.18c0.012-0.004,0.023-0.01,0.041-0.01
			c0.01,0,0.032,0.004,0.045,0.025c0.013,0.033,0.024,0.07,0.038,0.105l0.77,2.183c0.048,0.146,0.098,0.301,0.152,0.424
			c0.049,0.111,0.126,0.156,0.26,0.156h0.041v-0.001h0.002V42.63z M32.454,39.726c-0.017,0.11-0.032,0.225-0.045,0.337
			c-0.007,0.111-0.007,0.224-0.007,0.336v0.013l-0.014,0.005l-0.146,0.055L32.24,40.45c-0.012-0.156-0.027-0.384-0.291-0.384h-0.668
			v2.203c0.005,0.316,0.131,0.337,0.329,0.341h0.098v0.02v0.143H31.69c-0.165,0-0.456-0.018-0.681-0.018
			c-0.25,0-0.541,0.018-0.705,0.018h-0.02v-0.018v-0.145h0.02h0.078c0.231-0.005,0.322-0.008,0.33-0.332l-0.002-2.211h-0.666
			c-0.309,0.005-0.302,0.058-0.371,0.365l-0.002,0.016h-0.015H29.51l0.002-0.021c0.017-0.117,0.037-0.233,0.049-0.354
			c0.017-0.117,0.027-0.232,0.027-0.353V39.7h0.018h0.113l0.004,0.013c0.029,0.105,0.105,0.106,0.211,0.107h0.021h2.155
			c0.114-0.002,0.198-0.003,0.206-0.111l0.002-0.021l0.02,0.004l0.118,0.018L32.454,39.726z M31.691,35.396
			c0-1.573,1.403-2.701,2.907-2.701c0.623,0,1.221,0.2,1.812,0.407l0.075,1.098h-0.19c-0.147-0.899-0.784-1.258-1.643-1.258
			c-0.883,0-2.163,0.591-2.163,2.432c0,1.551,1.106,2.663,2.287,2.663c0.759,0,1.388-0.522,1.542-1.328l0.176,0.046l-0.176,1.12
			c-0.321,0.2-1.189,0.408-1.696,0.408C32.827,38.284,31.692,37.125,31.691,35.396z M33.882,39.841v0.144h-0.019h-0.058
			c-0.153,0.003-0.291,0.017-0.293,0.221v2.187c0.002,0.205,0.14,0.22,0.293,0.221h0.074v0.02v0.143h-0.018
			c-0.201,0-0.451-0.018-0.659-0.018c-0.204,0-0.45,0.018-0.614,0.018H32.57V42.76v-0.125v-0.02h0.017h0.06
			c0.151-0.002,0.288-0.016,0.29-0.221v-2.187c-0.002-0.204-0.139-0.219-0.29-0.221H32.57v-0.019v-0.143h0.018
			c0.164,0,0.414,0.016,0.618,0.016c0.208,0,0.459-0.016,0.656-0.016h0.019h0.001V39.841z M35.549,42.838
			c-0.892-0.003-1.578-0.61-1.58-1.518c0.002-0.878,0.682-1.559,1.559-1.559c0.896,0,1.615,0.558,1.617,1.457
			C37.145,42.189,36.446,42.833,35.549,42.838z M40.176,40.495v1.9c0,0.146,0.001,0.291,0.022,0.419l0.003,0.02h-0.02l-0.172-0.006
			l-2.119-2.361v1.674c0.006,0.364,0.062,0.466,0.375,0.47h0.09v0.019v0.146h-0.02c-0.181,0-0.359-0.017-0.537-0.017
			c-0.187,0-0.379,0.017-0.568,0.017h-0.02v-0.019v-0.144h0.02h0.056c0.275-0.002,0.354-0.179,0.358-0.511v-1.76
			c-0.002-0.221-0.183-0.356-0.363-0.356h-0.072v-0.019v-0.143h0.018c0.16,0,0.322,0.016,0.479,0.016
			c0.125,0,0.245-0.016,0.388-0.01l1.834,2.064v-1.535c-0.002-0.332-0.225-0.373-0.347-0.375h-0.11v-0.018v-0.144h0.02
			c0.197,0,0.391,0.015,0.583,0.015c0.172,0,0.343-0.015,0.517-0.015h0.018v0.019v0.143h-0.018h-0.063
			C40.357,39.989,40.178,40.005,40.176,40.495z M43.507,42.63v0.148l-0.021-0.001c-0.186-0.009-0.374-0.017-0.574-0.017
			c-0.203,0-0.413,0.008-0.625,0.017l-0.019,0.001v-0.02v-0.144h0.019h0.045c0.096,0,0.241-0.023,0.241-0.103
			c0.001-0.047-0.036-0.16-0.083-0.295l-0.158-0.472H41.41l-0.129,0.422c-0.042,0.143-0.091,0.253-0.09,0.32
			c0,0.103,0.155,0.128,0.293,0.128h0.063v0.02v0.144l-0.019-0.001c-0.167-0.008-0.338-0.018-0.504-0.018
			c-0.149,0-0.3,0.01-0.451,0.018l-0.019,0.001v-0.019v-0.145h0.019h0.024c0.157,0,0.287-0.09,0.347-0.26l0.669-1.916
			c0.053-0.155,0.129-0.362,0.165-0.528c0.131-0.046,0.299-0.129,0.381-0.181c0.011-0.004,0.02-0.008,0.039-0.008
			c0.011-0.002,0.032,0.002,0.046,0.023c0.012,0.033,0.025,0.07,0.038,0.105l0.769,2.183c0.05,0.148,0.099,0.301,0.154,0.425
			c0.049,0.11,0.124,0.155,0.258,0.155h0.043h0.001V42.63z M46.012,42.052c-0.047,0.237-0.104,0.472-0.155,0.709l-0.003,0.014
			h-0.016c-0.368,0-0.735-0.018-1.101-0.018c-0.369,0-0.736,0.018-1.103,0.018h-0.019v-0.018v-0.145h0.019h0.058
			c0.151-0.003,0.295-0.014,0.296-0.262v-2.146c-0.001-0.203-0.143-0.218-0.296-0.22h-0.076v-0.018v-0.144h0.019
			c0.221,0,0.438,0.015,0.66,0.015c0.211,0,0.42-0.015,0.633-0.015h0.019v0.019v0.143h-0.019h-0.104
			c-0.163,0.005-0.263-0.003-0.267,0.208v2.153c0.002,0.155,0.104,0.196,0.234,0.217c0.073,0.005,0.15,0.008,0.231,0.008
			c0.101,0,0.208-0.005,0.315-0.018c0.17-0.019,0.317-0.117,0.389-0.217c0.064-0.089,0.102-0.203,0.125-0.295l0.006-0.013h0.013
			h0.144L46.012,42.052z M45.943,40.601c-0.252,0-0.44-0.192-0.44-0.438c0-0.248,0.188-0.441,0.44-0.441
			c0.25,0,0.438,0.193,0.438,0.441C46.381,40.409,46.192,40.601,45.943,40.601z"/>
	</g>
</g>
<g>
	<g>
		<path d="M43.945,35.073c-0.284,0-0.521,0.185-0.729,0.362v1.864c0.001,0.293,0.275,0.783,0.79,0.783
			c0.822,0,1.168-0.806,1.168-1.49C45.174,35.765,44.545,35.073,43.945,35.073z"/>
	</g>
</g>
<g>
	<g>
		<path d="M45.942,39.805c-0.199,0-0.351,0.17-0.351,0.359c0,0.187,0.153,0.355,0.351,0.355c0.197,0,0.347-0.167,0.347-0.355
			C46.289,39.974,46.139,39.804,45.942,39.805z M46.164,40.395h-0.085c-0.041,0-0.076-0.088-0.158-0.203h-0.049v0.146
			c0,0.028,0.009,0.027,0.064,0.034v0.021h-0.213v-0.021c0.055-0.008,0.065-0.006,0.065-0.04v-0.326
			c0-0.045-0.005-0.061-0.063-0.059v-0.021h0.226c0.078,0,0.147,0.035,0.147,0.115c0,0.067-0.043,0.114-0.104,0.133l0.072,0.102
			c0.034,0.046,0.073,0.089,0.097,0.104h0.001V40.395z"/>
	</g>
</g>
<g>
	<g>
		<path d="M45.87,42.044c-0.024,0.091-0.061,0.211-0.13,0.3c-0.074,0.106-0.224,0.206-0.398,0.227
			c-0.193,0.022-0.381,0.022-0.553,0.008c-0.134-0.016-0.25-0.066-0.25-0.234v-2.153c0-0.222,0.125-0.226,0.283-0.226h0.105v-0.125
			c-0.213,0-0.422,0.016-0.635,0.016c-0.222,0-0.439-0.016-0.66-0.016v0.125h0.058c0.151,0,0.315,0.019,0.315,0.237v2.146
			c0,0.26-0.164,0.281-0.315,0.281h-0.058v0.125c0.37,0,0.735-0.017,1.104-0.017c0.368,0,0.735,0.017,1.102,0.017
			c0.05-0.238,0.109-0.473,0.154-0.711H45.87z M45.822,42.737c-0.36,0-0.724-0.016-1.086-0.016c-0.363,0-0.724,0.016-1.085,0.016
			v-0.088h0.04c0.151,0,0.332-0.028,0.332-0.299v-2.146c0-0.23-0.183-0.256-0.332-0.256h-0.04v-0.089
			c0.215,0.002,0.427,0.017,0.643,0.017c0.207,0,0.41-0.015,0.616-0.017v0.089h-0.087c-0.157,0-0.303,0.012-0.303,0.244v2.153
			c0,0.179,0.132,0.236,0.268,0.252c0.076,0.004,0.153,0.009,0.235,0.009c0.101,0,0.211-0.007,0.321-0.017
			c0.181-0.022,0.334-0.125,0.412-0.232c0.067-0.092,0.104-0.203,0.129-0.294v0.001h0.084C45.926,42.289,45.87,42.51,45.822,42.737z
			"/>
	</g>
</g>
<g>
	<g>
		<path d="M25.988,13.609c-4.526,0.001-8.194,3.671-8.195,8.198c0.001,4.526,3.669,8.195,8.195,8.198
			c4.527-0.002,8.195-3.672,8.195-8.198C34.183,17.278,30.515,13.609,25.988,13.609z M24.127,26.653
			c-1.948-0.75-3.329-2.635-3.333-4.848c0.004-2.213,1.384-4.099,3.333-4.849V26.653z M27.846,26.658v-9.7
			c1.948,0.748,3.333,2.636,3.337,4.85C31.179,24.023,29.795,25.908,27.846,26.658z"/>
	</g>
</g>
<g>
	<g>
		<path d="M22.899,34.906c-0.467,0-0.789,0.344-0.881,0.897h1.335c0.192,0,0.214-0.099,0.214-0.19
			C23.567,35.221,23.329,34.906,22.899,34.906z"/>
	</g>
</g>
<g>
	<g>
		<path d="M45.92,39.956h-0.05v0.208h0.054c0.057,0,0.082-0.042,0.082-0.111C46.006,39.981,45.965,39.956,45.92,39.956z"/>
	</g>
</g>
<g>
	<g>
		<path d="M29.836,42.63c-0.139,0-0.227-0.05-0.278-0.169c-0.054-0.125-0.103-0.28-0.153-0.426l-0.768-2.184
			c-0.013-0.033-0.026-0.071-0.038-0.104c-0.009-0.013-0.017-0.013-0.03-0.013c-0.014,0-0.021,0.005-0.034,0.009
			c-0.078,0.05-0.246,0.134-0.378,0.179c-0.026,0.156-0.101,0.365-0.156,0.519l-0.668,1.916c-0.061,0.174-0.2,0.272-0.363,0.272
			h-0.024v0.125c0.151-0.01,0.3-0.017,0.45-0.017c0.168,0,0.338,0.007,0.506,0.017V42.63h-0.047c-0.137,0-0.313-0.02-0.313-0.146
			c0-0.074,0.051-0.183,0.093-0.325l0.133-0.435h0.948l0.163,0.483c0.045,0.134,0.083,0.246,0.083,0.3
			c0,0.105-0.162,0.123-0.258,0.123h-0.047v0.125c0.212-0.01,0.421-0.017,0.626-0.017c0.201,0,0.388,0.007,0.576,0.017V42.63H29.836
			z M29.842,42.737c-0.183-0.007-0.364-0.017-0.558-0.017c-0.198,0-0.401,0.01-0.607,0.017V42.65h0.026
			c0.095-0.003,0.272-0.012,0.277-0.141c0-0.062-0.038-0.172-0.084-0.307l-0.168-0.497h-0.973l-0.137,0.447
			c-0.042,0.141-0.093,0.249-0.094,0.332c0.006,0.147,0.197,0.163,0.332,0.165h0.027v0.085c-0.16-0.007-0.324-0.017-0.486-0.017
			c-0.146,0-0.29,0.01-0.433,0.017v-0.087h0.007c0.171,0,0.317-0.103,0.38-0.285l0.667-1.916c0.054-0.154,0.13-0.364,0.156-0.521
			c0.124-0.033,0.292-0.114,0.372-0.166c0.009-0.004,0.015-0.006,0.024-0.006h0.007c0.004,0,0.003,0,0.006,0.004
			c0.011,0.029,0.023,0.068,0.036,0.1l0.768,2.184c0.051,0.147,0.1,0.301,0.155,0.428c0.052,0.123,0.15,0.18,0.294,0.18h0.006
			V42.737z"/>
	</g>
</g>
<g>
	<g>
		<path d="M33.804,39.966h0.059v-0.125c-0.196,0-0.447,0.016-0.657,0.016c-0.204,0-0.452-0.016-0.616-0.016v0.125h0.06
			c0.152,0,0.309,0.019,0.309,0.237v2.187c0,0.218-0.158,0.238-0.309,0.238h-0.06v0.125c0.164,0,0.409-0.016,0.614-0.016
			c0.208,0,0.459,0.016,0.659,0.016v-0.125h-0.059c-0.151,0-0.31-0.019-0.31-0.238v-2.187
			C33.494,39.986,33.654,39.966,33.804,39.966z M33.805,42.648h0.039v0.088c-0.198,0-0.439-0.017-0.641-0.017
			c-0.199,0-0.436,0.015-0.595,0.017v-0.088h0.04c0.148,0,0.326-0.028,0.326-0.257v-2.188c0-0.231-0.178-0.257-0.326-0.257h-0.04
			v-0.089c0.161,0.002,0.402,0.017,0.599,0.017c0.202,0.001,0.444-0.013,0.637-0.017v0.089h-0.039c-0.151,0-0.328,0.027-0.328,0.257
			v2.188C33.477,42.622,33.654,42.648,33.805,42.648z"/>
	</g>
</g>
<g>
	<g>
		<path d="M23.073,42.377l-0.713-1.068c0.331-0.129,0.581-0.359,0.581-0.734c0-0.591-0.468-0.734-0.994-0.734
			c-0.221,0-0.422,0.016-0.672,0.016c-0.255,0-0.514-0.016-0.647-0.016v0.125h0.074c0.13,0,0.297,0.011,0.297,0.316v2.122
			c0,0.154-0.141,0.226-0.297,0.226h-0.074v0.126c0.208,0,0.404-0.017,0.605-0.017c0.238,0,0.479,0.017,0.718,0.017V42.63h-0.076
			c-0.193,0-0.342-0.013-0.342-0.334V41.4h0.275c0.272,0.481,0.548,0.931,0.869,1.354c0.129,0,0.264-0.017,0.393-0.017
			c0.137,0,0.271,0.017,0.408,0.017V42.63C23.273,42.606,23.19,42.555,23.073,42.377z M23.458,42.646v0.091
			c-0.13-0.003-0.258-0.017-0.392-0.017c-0.131,0-0.264,0.018-0.391,0.018c-0.308-0.413-0.582-0.865-0.855-1.344l-0.004-0.01h-0.285
			h-0.019v0.912c0,0.329,0.171,0.354,0.361,0.354h0.057v0.086c-0.23-0.001-0.466-0.017-0.7-0.017c-0.195,0-0.386,0.017-0.586,0.017
			v-0.087h0.057c0.158,0,0.315-0.078,0.315-0.245v-2.122c0-0.313-0.185-0.335-0.315-0.335h-0.057v-0.089
			c0.136,0.002,0.384,0.017,0.629,0.017c0.251,0,0.452-0.017,0.672-0.017c0.525,0.002,0.976,0.137,0.976,0.716
			c0,0.367-0.243,0.591-0.569,0.719l-0.021,0.009l0.727,1.086c0.114,0.175,0.206,0.233,0.402,0.258H23.458z"/>
	</g>
</g>
<g>
	<g>
		<path d="M21.77,39.974c-0.126,0-0.182,0.011-0.239,0.016l-0.017,0.001v1.278h0.019h0.204c0.42,0,0.66-0.17,0.661-0.668
			C22.398,40.219,22.151,39.974,21.77,39.974z M21.737,41.252h-0.204v-1.244c0.058-0.004,0.112-0.017,0.237-0.017
			c0.372,0,0.609,0.237,0.609,0.61C22.379,41.093,22.155,41.25,21.737,41.252z"/>
	</g>
</g>
<g>
	<g>
		<path d="M26.963,39.841c-0.172,0-0.343,0.016-0.514,0.016c-0.196,0-0.388-0.016-0.584-0.016v0.125h0.091
			c0.126,0,0.363,0.051,0.363,0.394v1.565l-0.003,0.002l-0.004,0.006l-1.858-2.092c-0.124,0-0.247,0.016-0.371,0.016
			c-0.157,0-0.322-0.016-0.479-0.016v0.127h0.053c0.189,0,0.38,0.142,0.38,0.375v1.758c0,0.334-0.086,0.529-0.375,0.529h-0.058
			v0.125c0.187,0,0.379-0.016,0.568-0.016c0.179,0,0.358,0.016,0.537,0.016V42.63h-0.07c-0.322,0-0.393-0.123-0.393-0.488v-1.721
			l2.149,2.396h0.159c-0.021-0.129-0.024-0.275-0.024-0.421v-1.9c0-0.497,0.196-0.53,0.371-0.53h0.063L26.963,39.841z M26.902,39.95
			c-0.18,0.001-0.39,0.048-0.39,0.549v1.9c0,0.137,0.003,0.277,0.022,0.402h-0.138l-2.168-2.425v1.767
			c0.001,0.363,0.082,0.508,0.412,0.509h0.052v0.087c-0.172,0-0.345-0.016-0.521-0.016c-0.184,0-0.37,0.016-0.55,0.016v-0.088
			l0.041,0.001c0.299-0.002,0.393-0.216,0.393-0.55v-1.758c0-0.247-0.2-0.394-0.397-0.395h-0.037v-0.089
			c0.152,0.002,0.308,0.017,0.463,0.017c0.126,0,0.247-0.017,0.371-0.017l1.858,2.101l0.013-0.014l0.008-0.008l0.005-1.579
			c0-0.354-0.253-0.411-0.382-0.412h-0.073v-0.089c0.189,0.002,0.375,0.017,0.566,0.017c0.166,0,0.33-0.015,0.495-0.017l0.001,0.091
			H26.902z"/>
	</g>
</g>
<g>
	<g>
		<path d="M35.519,39.982c-0.717,0.001-0.928,0.634-0.93,1.192c0,0.743,0.34,1.442,1,1.443c0.795-0.001,0.933-0.698,0.935-1.307
			C36.524,40.706,36.198,39.981,35.519,39.982z"/>
	</g>
</g>
<g>
	<g>
		<path d="M32.336,39.711c-0.01,0.125-0.113,0.13-0.228,0.13h-2.155c-0.11,0-0.216,0.002-0.249-0.123h-0.102
			c0,0.123-0.007,0.238-0.024,0.355c-0.012,0.122-0.034,0.238-0.05,0.355h0.125c0.063-0.305,0.075-0.381,0.388-0.381h0.687v2.23
			c0,0.331-0.118,0.352-0.348,0.352h-0.078v0.126c0.162,0,0.455-0.017,0.705-0.017c0.226,0,0.519,0.017,0.68,0.017V42.63h-0.079
			c-0.201,0-0.347-0.037-0.347-0.359v-2.221h0.687c0.279,0,0.299,0.246,0.308,0.4l0.125-0.047c0-0.112,0-0.225,0.01-0.338
			c0.014-0.112,0.029-0.225,0.045-0.338L32.336,39.711z M32.372,40.064c-0.009,0.109-0.009,0.219-0.009,0.326l-0.091,0.035
			c-0.009-0.155-0.046-0.394-0.324-0.395h-0.704v2.24c0,0.328,0.163,0.377,0.364,0.378h0.062v0.089
			c-0.166-0.001-0.443-0.018-0.662-0.018c-0.243,0-0.523,0.017-0.688,0.018v-0.089h0.065c0.228-0.001,0.363-0.034,0.363-0.369
			v-2.249h-0.703c-0.311-0.004-0.348,0.09-0.402,0.38h-0.09c0.015-0.108,0.035-0.219,0.047-0.334
			c0.016-0.11,0.023-0.224,0.025-0.339h0.068c0.037,0.117,0.144,0.123,0.242,0.121h0.021h2.155c0.104,0.002,0.22-0.004,0.241-0.126
			l0.062,0.01C32.399,39.849,32.383,39.956,32.372,40.064z"/>
	</g>
</g>
<g>
	<g>
		<path d="M28.257,40.291h-0.013h-0.009h-0.013l-0.4,1.217h0.832L28.257,40.291z M28.236,40.31v-0.002h0.009l0.384,1.183h-0.78
			L28.236,40.31z"/>
	</g>
</g>
<g>
	<g>
		<polygon points="28.24,40.353 27.873,41.471 28.603,41.471 		"/>
	</g>
</g>
<g>
	<g>
		<path d="M20.319,42.062c-0.126,0.476-0.347,0.51-0.847,0.508c-0.268,0-0.509,0-0.509-0.272v-0.972h0.5
			c0.288,0,0.301,0.163,0.325,0.414l0.125-0.026c-0.009-0.159-0.013-0.317-0.013-0.476c0-0.162,0.005-0.325,0.013-0.489h-0.126
			c-0.024,0.226-0.079,0.368-0.328,0.368h-0.497v-1.093h0.579c0.439,0,0.488,0.217,0.509,0.488l0.127-0.033
			c-0.013-0.184-0.017-0.459-0.01-0.639c-0.283,0-0.716,0.016-1.067,0.016c-0.351,0-0.786-0.016-1.04-0.016v0.127h0.059
			c0.151,0,0.309,0.019,0.309,0.237v2.187c0,0.218-0.159,0.238-0.309,0.238H18.06v0.125c0.238,0,0.735-0.016,1.111-0.016
			c0.375,0,0.854,0.016,1.123,0.016c0.038-0.223,0.087-0.442,0.142-0.664L20.319,42.062z M20.279,42.734
			c-0.269,0-0.74-0.017-1.109-0.017c-0.366,0-0.848,0.017-1.092,0.017v-0.087h0.041c0.148-0.002,0.326-0.029,0.326-0.258V40.2
			c0-0.231-0.178-0.257-0.326-0.257h-0.041v-0.089c0.256,0.002,0.678,0.017,1.022,0.017c0.342,0,0.766-0.015,1.049-0.017
			c-0.003,0.059-0.004,0.128-0.004,0.199c0,0.138,0.005,0.291,0.013,0.408l-0.09,0.023c-0.018-0.261-0.091-0.484-0.525-0.482h-0.598
			v1.129h0.514c0.255,0.004,0.323-0.149,0.346-0.367h0.09c-0.009,0.159-0.013,0.315-0.013,0.472c0,0.153,0.005,0.308,0.013,0.461
			l-0.09,0.021c-0.021-0.238-0.051-0.414-0.342-0.412h-0.519v0.99c0,0.291,0.263,0.291,0.526,0.291
			c0.493,0.004,0.736-0.037,0.861-0.505l0.083,0.019C20.362,42.312,20.315,42.525,20.279,42.734z"/>
	</g>
</g>
<g>
	<g>
		<path d="M40.077,39.857c-0.194,0-0.387-0.016-0.583-0.016v0.125h0.09c0.127,0,0.364,0.051,0.364,0.394v1.565l-0.003,0.002
			l-0.006,0.006l-1.858-2.092c-0.125,0-0.245,0.016-0.372,0.016c-0.159,0-0.321-0.016-0.479-0.016v0.127h0.059
			c0.19,0,0.379,0.142,0.379,0.375v1.758c0,0.334-0.087,0.529-0.375,0.529h-0.059v0.125c0.187,0,0.38-0.016,0.568-0.016
			c0.178,0,0.357,0.016,0.537,0.016V42.63h-0.072c-0.321,0-0.392-0.123-0.392-0.488v-1.721l2.15,2.396h0.157
			c-0.02-0.129-0.024-0.275-0.024-0.421v-1.9c0-0.497,0.196-0.53,0.372-0.53h0.062v-0.125C40.42,39.841,40.248,39.857,40.077,39.857
			z M40.572,39.95h-0.045c-0.178,0.001-0.389,0.046-0.389,0.549v1.9c0,0.137,0.002,0.277,0.021,0.402h-0.136l-2.168-2.426v1.768
			c0,0.363,0.082,0.508,0.41,0.509h0.054v0.087c-0.173,0-0.347-0.016-0.521-0.016c-0.184,0-0.369,0.016-0.551,0.016v-0.088
			l0.041,0.001c0.301-0.002,0.395-0.216,0.395-0.55v-1.758c0-0.247-0.202-0.394-0.398-0.395h-0.037v-0.089
			c0.152,0.002,0.309,0.017,0.461,0.017c0.127,0,0.249-0.017,0.372-0.017l1.858,2.101l0.014-0.014l0.01-0.008l0.004-1.579
			c0-0.352-0.254-0.411-0.383-0.412H39.51v-0.089c0.19,0.002,0.377,0.017,0.567,0.017c0.165,0,0.331-0.015,0.496-0.017L40.572,39.95
			z"/>
	</g>
</g>
<g>
	<g>
		<polygon points="14.247,41.922 14.248,41.922 14.248,41.922 		"/>
	</g>
</g>
<g>
	<g>
		<path d="M14.396,39.857c-0.197,0-0.388-0.016-0.587-0.016v0.125h0.092c0.125,0,0.363,0.051,0.363,0.394v1.565l-0.007,0.008
			l-0.009-0.01v0.002l-0.003-0.005l-1.846-2.079c-0.126,0-0.247,0.016-0.372,0.016c-0.16,0-0.322-0.016-0.48-0.016v0.125h0.054
			c0.188,0,0.381,0.143,0.381,0.375v1.76c0,0.332-0.088,0.529-0.376,0.529h-0.058v0.124c0.188,0,0.381-0.017,0.568-0.017
			c0.18,0,0.359,0.017,0.538,0.017v-0.125h-0.07c-0.322,0-0.393-0.125-0.393-0.488v-1.721l2.15,2.396H14.5
			c-0.021-0.129-0.024-0.275-0.024-0.421v-1.9c0-0.497,0.196-0.529,0.372-0.529h0.062v-0.125
			C14.738,39.841,14.567,39.857,14.396,39.857z M14.849,39.948c-0.181,0-0.39,0.048-0.39,0.549v1.9c0,0.137,0.003,0.276,0.021,0.403
			h-0.138l-2.167-2.427v1.769c0,0.363,0.082,0.506,0.411,0.508h0.052v0.089c-0.173-0.001-0.346-0.018-0.52-0.018
			c-0.184,0-0.37,0.017-0.55,0.018v-0.09l0.04,0.002c0.301-0.002,0.393-0.217,0.393-0.549v-1.76c0-0.245-0.2-0.394-0.397-0.394
			h-0.037l0.001-0.089c0.151,0.002,0.308,0.017,0.46,0.017c0.127,0,0.248-0.017,0.372-0.017l1.857,2.1l0.014-0.013l0.008-0.008
			l0.007-1.579c0-0.353-0.254-0.411-0.382-0.411H13.83v-0.089c0.189,0.002,0.375,0.017,0.566,0.017c0.165,0,0.33-0.015,0.495-0.017
			l0.001,0.089H14.849z"/>
	</g>
</g>
<g>
	<g>
		<path d="M21.77,40.008c-0.113,0-0.166,0.01-0.219,0.016v1.209h0.186c0.413-0.003,0.622-0.146,0.625-0.633
			C22.36,40.237,22.133,40.01,21.77,40.008z"/>
	</g>
</g>
<g>
	<g>
		<path d="M17.827,39.711c-0.008,0.125-0.113,0.13-0.227,0.13h-2.154c-0.112,0-0.216,0.002-0.25-0.123h-0.101
			c0,0.123-0.008,0.238-0.024,0.355c-0.012,0.122-0.033,0.238-0.05,0.355h0.125c0.063-0.305,0.075-0.381,0.388-0.381h0.685v2.23
			c0,0.331-0.117,0.352-0.347,0.352h-0.079v0.126c0.163,0,0.455-0.017,0.706-0.017c0.224,0,0.517,0.017,0.68,0.017V42.63h-0.081
			c-0.199,0-0.345-0.037-0.345-0.359v-2.221h0.685c0.28,0,0.3,0.246,0.309,0.4l0.126-0.047c0-0.112,0-0.225,0.007-0.338
			c0.014-0.112,0.029-0.225,0.046-0.338L17.827,39.711z M17.863,40.065c-0.008,0.109-0.009,0.219-0.009,0.326l-0.089,0.035
			c-0.01-0.155-0.045-0.394-0.326-0.395h-0.704v2.24c0,0.328,0.164,0.378,0.365,0.379h0.061v0.087c-0.166,0-0.444-0.017-0.662-0.017
			c-0.241,0-0.523,0.017-0.688,0.017V42.65h0.063c0.229-0.001,0.364-0.035,0.364-0.37v-2.249h-0.703
			c-0.311-0.004-0.347,0.09-0.402,0.38h-0.09c0.017-0.108,0.036-0.22,0.047-0.334c0.016-0.11,0.024-0.224,0.025-0.339h0.068
			c0.038,0.117,0.146,0.121,0.244,0.121h0.021h2.153c0.106,0.002,0.222-0.004,0.241-0.126l0.064,0.011
			C17.891,39.849,17.875,39.956,17.863,40.065z"/>
	</g>
</g>
<g>
	<g>
		<polygon points="41.867,40.353 41.5,41.471 42.23,41.471 		"/>
	</g>
</g>
<g>
	<g>
		<path d="M35.518,39.943c-0.743,0-0.963,0.667-0.965,1.229c0.002,0.75,0.346,1.478,1.037,1.479c0.826,0,0.969-0.733,0.971-1.342
			C36.559,40.698,36.229,39.945,35.518,39.943z M35.593,42.633c-0.677,0-1.02-0.715-1.02-1.461c0-0.56,0.217-1.211,0.947-1.211
			c0.693,0,1.022,0.739,1.022,1.348S36.401,42.633,35.593,42.633z"/>
	</g>
</g>
<g>
	<g>
		<polygon points="14.245,41.919 14.245,41.919 14.247,41.921 		"/>
	</g>
</g>
<g>
	<g>
		<path d="M35.527,39.778c-0.868,0-1.54,0.673-1.54,1.541c0,0.897,0.676,1.5,1.562,1.5c0.889,0,1.578-0.64,1.578-1.601
			C37.127,40.33,36.417,39.778,35.527,39.778z M35.549,42.799c-0.875,0-1.543-0.592-1.545-1.48c0.002-0.857,0.666-1.523,1.524-1.523
			c0.882,0.002,1.581,0.545,1.582,1.422C37.107,42.167,36.43,42.797,35.549,42.799z"/>
	</g>
</g>
<g>
</g>
<g>
</g>
<g>
</g>
<g>
</g>
<g>
</g>
<g>
</g>
<g>
</g>
<g>
</g>
<g>
</g>
<g>
</g>
<g>
</g>
<g>
</g>
<g>
</g>
<g>
</g>
<g>
</g>
</svg>
