<?xml version="1.0" encoding="iso-8859-1"?>
<!-- Generator: Adobe Illustrator 19.0.0, SVG Export Plug-In . SVG Version: 6.00 Build 0)  -->
<svg version="1.1" id="Capa_1" xmlns="http://www.w3.org/2000/svg" xmlns:xlink="http://www.w3.org/1999/xlink" x="0px" y="0px"
	 viewBox="0 0 512.002 512.002" style="enable-background:new 0 0 512.002 512.002;" xml:space="preserve">
<path style="fill:#F0EFEB;" d="M506.831,256.001c0,139.958-113.458,253.416-253.416,253.416c-74.37,0-141.251-32.034-187.61-83.058
	C32.53,389.742,9.837,343.341,2.544,291.986C0.869,280.234,0,268.216,0,256.001C0,116.043,113.458,2.585,253.416,2.585
	S506.831,116.043,506.831,256.001z"/>
<path style="fill:#E4363A;" d="M230.732,96.431c-5.13-3.051-10.747-3.775-16.57-3.775c-43.132,0.01-86.265-0.01-129.387,0.031
	c-3.641,0.01-7.271,0.372-10.912,0.569c-1.314,1.779-3.548,1.583-5.317,2.327c-14.243,6.051-23.718,16.353-27.472,31.382
	c-2.224,8.916-22.311,95.222-38.53,165.02c7.292,51.355,29.986,97.756,63.261,134.372c23.283-0.052,46.577-0.031,69.86,0.3
	c20.656,0.3,40.464-15.815,44.849-35.644c8.006-36.223,16.725-72.28,25.155-108.4c12.154-52.069,24.307-104.138,36.45-156.207
	C245.048,113.85,240.652,102.338,230.732,96.431z"/>
<path style="fill:#004A87;" d="M161.746,126.964c3.758-15.033,13.231-25.327,27.478-31.378c1.771-0.752,3.999-0.551,5.317-2.335
	c3.636-0.197,7.27-0.561,10.906-0.564c43.131-0.04,86.264-0.022,129.395-0.034c5.817-0.002,11.441,0.726,16.564,3.776
	c9.919,5.905,14.318,17.422,11.39,29.976c-12.145,52.068-24.3,104.134-36.447,156.202c-8.428,36.125-17.15,72.184-25.157,108.402
	c-4.386,19.834-24.193,35.949-44.845,35.65c-42.392-0.612-84.799-0.173-127.199-0.211c-3.748-0.003-7.496-0.336-11.244-0.516
	c-0.731-1.061-1.981-1.166-3.035-1.441c-8.517-2.227-15.801-14.067-15.803-21.591c-0.003-7.186,1.545-13.975,3.24-20.831
	C102.301,382.072,157.949,142.152,161.746,126.964z"/>
<path style="fill:#008286;" d="M310.059,126.964c3.758-15.033,13.231-25.327,27.478-31.378c1.771-0.752,3.999-0.551,5.317-2.335
	c3.636-0.197,7.27-0.561,10.906-0.564c43.131-0.04,86.264-0.022,129.395-0.034c5.817-0.002,11.441,0.726,16.564,3.776
	c9.919,5.905,14.318,17.422,11.39,29.976c-12.145,52.068-24.3,104.134-36.447,156.202c-8.428,36.125-17.15,72.184-25.157,108.402
	c-4.386,19.834-24.193,35.949-44.845,35.65c-42.392-0.612-84.799-0.173-127.199-0.211c-3.748-0.003-7.496-0.336-11.244-0.516
	c-0.731-1.061-1.981-1.166-3.035-1.441c-8.517-2.227-15.801-14.067-15.803-21.591c-0.003-7.186,1.545-13.975,3.24-20.831
	C250.614,382.072,306.262,142.152,310.059,126.964z"/>
<g>
	<path style="fill:#FFFFFF;" d="M327.421,247.024c-3.455,0.001-6.912,0.057-10.364-0.026c-1.433-0.034-2.04,0.386-2.329,1.884
		c-1.652,8.541-3.464,17.05-5.134,25.588c-0.308,1.576-0.864,2.169-2.575,2.104c-4.077-0.155-8.169-0.164-12.246-0.001
		c-2.018,0.081-2.511-0.388-2.081-2.417c2.597-12.267,5.077-24.56,7.608-36.841c2.769-13.432,5.589-26.855,8.28-40.302
		c0.333-1.665,0.911-2.114,2.57-2.103c11.542,0.079,23.086,0.056,34.629,0.036c2.766-0.005,5.481,0.336,8.155,0.994
		c7.596,1.869,12.107,6.817,12.806,14.642c1.199,13.413-5.088,28.22-20.052,34.262c-3.902,1.575-7.999,2.197-12.198,2.184
		C332.133,247.017,329.778,247.023,327.421,247.024z M328.198,232.79c2.121,0,4.243,0.014,6.363-0.002
		c8.564-0.066,13.353-4.235,14.694-12.774c1.035-6.599-1.071-9.851-7.56-10.728c-5.843-0.79-11.768-0.268-17.656-0.341
		c-0.91-0.011-1.132,0.494-1.293,1.301c-1.397,6.996-2.801,13.993-4.317,20.964c-0.296,1.361,0.05,1.621,1.286,1.597
		C322.541,232.751,325.37,232.789,328.198,232.79z"/>
	<path style="fill:#FFFFFF;" d="M442.677,259.301c0.985-0.71,1.068-1.531,1.365-2.22c4.185-9.714,8.392-19.418,12.492-29.168
		c0.584-1.39,1.265-1.867,2.749-1.819c3.531,0.112,7.072,0.125,10.602,0.001c1.926-0.067,2.044,0.42,1.243,2.034
		c-8.885,17.898-17.739,35.813-26.549,53.749c-3.805,7.748-7.507,15.553-12.928,22.354c-4.696,5.892-10.123,10.759-17.921,12.046
		c-2.529,0.417-5.062,1.014-7.644,0.333c0.275-2.403,0.539-4.808,0.836-7.208c0.077-0.617,0.24-1.142,0.981-1.435
		c6.818-2.69,10.937-8.197,14.576-14.163c2.411-3.953,4.297-8.184,6.346-12.327c0.448-0.906,0.363-1.793,0.285-2.743
		c-1.364-16.746-2.675-33.496-4.089-50.238c-0.153-1.816,0.326-2.309,2.089-2.279c4.083,0.069,8.172,0.061,12.25-0.133
		c2.025-0.096,2.665,0.425,2.687,2.549C442.151,238.759,442.444,248.883,442.677,259.301z"/>
	<path style="fill:#FFFFFF;" d="M389.914,276.154c-0.805,0.003-1.611-0.023-2.051-0.831c-1.103-2.024-2.526-1.638-4.317-0.897
		c-3.412,1.413-6.99,2.354-10.715,2.464c-7.569,0.224-12.731-3.905-13.642-11.401c-1.364-11.229,1.77-21.374,8.86-30.058
		c6.171-7.557,17.034-8.483,25.214-2.553c1.506,1.091,2.595,1.469,3.996,0.067c0.566-0.566,1.991-2.047,2.719-2.804
		c0.285-0.297,0.669-0.469,1.081-0.482c2.486-0.085,11.398-0.389,11.864-0.401c1.976-0.054,1.824,0.728,1.126,3.873
		c-3.07,13.845-6.148,27.687-9.138,41.549c-0.312,1.448-0.808,1.961-2.289,1.87C400.513,276.421,392.032,276.144,389.914,276.154z
		 M393.33,249.261c-0.094-2.029-0.271-4.048-1.204-5.923c-1.657-3.327-4.668-4.389-8.047-2.821c-1.15,0.534-2.184,1.249-3.055,2.156
		c-4.788,4.971-6.824,10.943-6.29,17.788c0.109,1.397,0.564,2.752,1.272,4.001c1.623,2.86,4.344,3.836,7.402,2.614
		c1.556-0.623,2.843-1.634,3.968-2.86C391.249,259.988,393.054,254.937,393.33,249.261z"/>
	<path style="fill:#FFFFFF;" d="M213.157,224.916c10.42-0.158,17.684,5.038,19.808,14.161c3.812,16.375-7.548,34.594-23.865,38.112
		c-5.474,1.18-10.965,1.051-16.162-1.294c-5.73-2.587-9.136-7.158-9.978-13.339c-1.442-10.574,2.673-26.441,15.771-33.939
		C203.202,226.057,208.048,224.982,213.157,224.916z M195.925,255.676c-0.017,6.505,2.203,10.046,6.511,10.811
		c5.274,0.938,9.91-0.435,13.038-5.002c3.714-5.422,5.216-11.538,4.555-18.084c-0.432-4.28-3.511-7.089-7.82-7.39
		c-5.143-0.36-9.197,1.627-11.976,5.965C197.376,246.44,196.224,251.447,195.925,255.676z"/>
	<path style="fill:#FFFFFF;" d="M277.108,225.05c-7.36-0.635-13.375,1.888-18.573,7.44c0.275-1.53,0.419-3.099,0.862-4.578
		c0.483-1.617-0.13-1.85-1.553-1.808c-2.904,0.086-5.817,0.113-8.719-0.01c-1.501-0.064-1.984,0.455-2.267,1.899
		c-1.094,5.572-7.492,37.39-9.449,46.834c-0.297,1.432,0.04,1.759,1.415,1.724l9.189,0.016c1.634,0.079,2.129-0.576,2.383-2.042
		c0.643-3.707,5.073-25.395,5.932-28.878c1.572-6.375,6.637-9.911,12.781-9.677c4.077,0.155,6.2,2.449,5.944,6.535
		c-0.083,1.325-0.333,2.647-0.592,3.953c-1.876,9.461-3.743,18.924-5.7,28.369c-0.297,1.432,0.04,1.759,1.415,1.724l9.189,0.016
		c1.634,0.079,2.129-0.576,2.383-2.042c0.643-3.707,1.467-7.382,2.156-11.081c1.522-8.17,3.615-16.238,4.658-24.49
		C289.554,231.113,284.951,225.725,277.108,225.05z"/>
	<path style="fill:#FFFFFF;" d="M123.407,236.206c-6.006,0.851-9.307,4.711-10.569,10.245c-1.883,8.25-3.408,16.582-5.029,24.89
		c-1.011,5.182-0.963,5.191-6.281,5.191c-1.885,0-3.777-0.109-5.652,0.032c-1.656,0.125-1.96-0.444-1.647-1.971
		c2.107-10.29,4.15-20.593,6.216-30.891c1.033-5.149,2.121-10.289,3.079-15.451c0.282-1.519,0.669-2.32,2.495-2.198
		c2.971,0.199,5.965,0.102,8.948,0.03c1.206-0.029,1.51,0.392,1.26,1.503c-0.361,1.598-0.656,3.211-0.773,5.031
		c0.829-0.946,1.707-1.811,2.632-2.599c4.317-3.671,9.976-5.463,15.626-5.005c0.744,0.06,1.488,0.165,2.232,0.327
		c6.746,1.466,10.482,6.858,9.298,14.079c-1.331,8.112-3.073,16.158-4.649,24.23c-0.705,3.613-1.503,7.209-2.14,10.834
		c-0.252,1.438-0.676,2.163-2.346,2.076c-2.974-0.154-5.963-0.105-8.943-0.018c-1.492,0.043-1.96-0.146-1.598-1.889
		c2.1-10.123,4.094-20.27,5.999-30.432C132.714,238.08,129.693,235.2,123.407,236.206z"/>
	<path style="fill:#FFFFFF;" d="M153.004,276.51c-0.937,0.002-1.636-0.866-1.441-1.782c2.007-9.379,3.974-18.597,5.953-27.812
		c1.333-6.21,2.74-12.405,3.988-18.633c0.313-1.564,0.77-2.268,2.532-2.179l9.898,0.021c1.48-0.039,1.839,0.232,1.487,1.832
		c-3.431,15.625-6.762,31.273-10.115,46.914c-0.182,0.851-0.215,1.68-1.489,1.662C160.25,276.484,156.68,276.503,153.004,276.51z"/>
	<path style="fill:#FFFFFF;" d="M178.789,207.783c-1.695,0.044-3.391,0.032-5.087,0.023l0.001-0.007
		c-0.453,0-0.888,0.001-1.315,0.003c-0.139,0-0.277-0.001-0.416-0.001v0.003c-1.528,0.007-2.909,0.017-4.287-0.021
		c-0.907-0.024-1.473,0.192-1.668,1.18c-0.638,3.222-1.304,6.438-2.011,9.645c-0.228,1.03,0.027,1.418,1.124,1.389
		c1.695-0.044,3.391-0.032,5.087-0.023l-0.001,0.007c0.453,0,0.888-0.002,1.315-0.003c0.139,0,0.277,0.001,0.416,0.001v-0.003
		c1.528-0.007,2.909-0.017,4.287,0.021c0.907,0.024,1.473-0.192,1.668-1.18c0.638-3.222,1.304-6.438,2.011-9.645
		C180.141,208.142,179.888,207.754,178.789,207.783z"/>
	<path style="fill:#FFFFFF;" d="M47.853,278.259c-6.247-0.143-12.246-0.659-17.739-3.626c-6.455-3.488-9.883-8.933-10.527-16.207
		c-0.58-6.549,1.321-12.763,2.591-19.047c3.027-14.983,6.222-29.93,9.251-44.911c0.398-1.966,1.134-2.641,3.182-2.557
		c4.312,0.178,8.639,0.14,12.955,0.013c1.789-0.053,2.085,0.529,1.748,2.136c-3.233,15.42-6.425,30.849-9.614,46.279
		c-0.666,3.224-1.408,6.44-1.886,9.694c-1.073,7.313,2.848,12.227,10.161,12.939c12.038,1.171,20.151-4.873,22.563-16.663
		c3.582-17.509,7.256-34.999,10.845-52.508c0.261-1.271,0.635-1.893,2.085-1.866c4.789,0.087,9.581,0.047,14.371,0.023
		c1.035-0.005,1.577,0.094,1.295,1.429c-3.995,18.944-7.644,37.967-11.98,56.831c-3.635,15.817-14.411,24.401-30.1,27.222
		c-1.002,0.18-2.011,0.36-3.024,0.441C51.919,278.043,49.801,278.142,47.853,278.259z"/>
</g>
<g>
</g>
<g>
</g>
<g>
</g>
<g>
</g>
<g>
</g>
<g>
</g>
<g>
</g>
<g>
</g>
<g>
</g>
<g>
</g>
<g>
</g>
<g>
</g>
<g>
</g>
<g>
</g>
<g>
</g>
</svg>
